<svg width="23" height="23" viewBox="0 0 23 23" fill="none" xmlns="http://www.w3.org/2000/svg">
<g id="pin">
<path id="Vector" fill-rule="evenodd" clip-rule="evenodd" d="M17.676 3.92548L18.3665 4.61599C19.5309 5.78034 20.4808 6.73018 21.1304 7.55592C21.7954 8.40134 22.2929 9.29418 22.2921 10.3485C22.2916 10.9385 22.1713 11.5219 21.9384 12.0639C21.5221 13.0326 20.7121 13.6559 19.7668 14.1694C18.8438 14.6709 17.5958 15.1676 16.0658 15.7765L15.7627 15.897C14.7934 16.2829 14.5388 16.3969 14.3434 16.5517C14.1709 16.6883 14.0222 16.853 13.9038 17.0386C13.7698 17.2488 13.6824 17.5137 13.3976 18.5174L13.3819 18.5722C13.1897 19.2497 13.0222 19.84 12.8434 20.2964C12.6613 20.7612 12.398 21.2821 11.9019 21.6458C11.3317 22.0639 10.6231 22.2482 9.92135 22.1608C9.3109 22.0848 8.82717 21.7583 8.44187 21.4412C8.06325 21.1296 7.62949 20.6958 7.13146 20.1977L5.45247 18.5187L2.02719 21.9439C1.56344 22.4077 0.811549 22.4077 0.347807 21.9439C-0.115936 21.4802 -0.115936 20.7284 0.347807 20.2646L3.7731 16.8392L2.09443 15.1606C1.59631 14.6626 1.1625 14.2288 0.850879 13.8502C0.533753 13.4648 0.207191 12.9811 0.131207 12.3706C0.043886 11.669 0.228154 10.9603 0.646281 10.3902C1.01004 9.89395 1.53087 9.63064 1.99553 9.44872C2.45212 9.2698 3.04229 9.10228 3.71991 8.91007L3.77463 8.89455C4.77834 8.60971 5.04315 8.52231 5.2534 8.3882C5.43905 8.26977 5.60363 8.12122 5.74037 7.94862C5.89524 7.75316 6.00917 7.49863 6.39498 6.52924L6.51554 6.22633C7.12443 4.69636 7.62113 3.44826 8.12264 2.52513C8.63614 1.5799 9.25939 0.769865 10.2281 0.353639C10.7701 0.120794 11.3536 0.0004761 11.9434 1.10037e-06C12.9978 -0.0008539 13.8906 0.496645 14.7361 1.16169C15.5618 1.81121 16.5117 2.7611 17.676 3.92548ZM8.7706 18.478L6.30594 16.0134L6.29227 15.9994L6.27839 15.9858L3.81399 13.5214C3.26393 12.9713 2.91396 12.6195 2.68465 12.3408C2.54335 12.1692 2.49796 12.0826 2.48604 12.0571C2.47973 11.9703 2.50223 11.8839 2.55003 11.811C2.57285 11.7946 2.65468 11.7412 2.8617 11.66C3.19771 11.5284 3.67474 11.3916 4.42309 11.1793L4.56245 11.1399C5.36069 10.9139 5.98887 10.7361 6.53058 10.3905C6.93902 10.13 7.30111 9.80322 7.60194 9.42354C8.00094 8.91988 8.24193 8.31315 8.54814 7.54208L8.69332 7.17709C9.33815 5.55691 9.78387 4.44244 10.2095 3.65889C10.6311 2.88289 10.9279 2.63791 11.1657 2.53574C11.412 2.42991 11.6773 2.37522 11.9453 2.375C12.2042 2.3748 12.5736 2.48241 13.2677 3.02841C13.9687 3.57971 14.8188 4.42703 16.0519 5.66007L16.632 6.24017C17.8649 7.47321 18.7123 8.32344 19.2637 9.02422C19.8096 9.71836 19.9173 10.0877 19.9171 10.3466C19.9168 10.6147 19.8622 10.88 19.7562 11.1264C19.6541 11.3641 19.4092 11.6609 18.6332 12.0824C17.8496 12.5082 16.7351 12.9539 15.115 13.5986L14.7499 13.7438C13.979 14.05 13.3722 14.291 12.8686 14.69C12.4889 14.9909 12.1619 15.353 11.9015 15.7615C11.556 16.3031 11.3781 16.9314 11.1522 17.7295L11.1127 17.8689C10.9003 18.6173 10.7636 19.0944 10.632 19.4304C10.5509 19.6373 10.4974 19.7192 10.4809 19.742C10.4082 19.7898 10.3217 19.8123 10.2349 19.8059C10.2094 19.7941 10.1228 19.7486 9.95113 19.6074C9.67251 19.3781 9.32067 19.028 8.7706 18.478Z" fill="#1C274C"/>
</g>
</svg>
